<?xml version="1.0" encoding="UTF-8" standalone="no"?>
<!-- Created with Inkscape (http://www.inkscape.org/) -->

<svg
   xmlns:dc="http://purl.org/dc/elements/1.1/"
   xmlns:cc="http://creativecommons.org/ns#"
   xmlns:rdf="http://www.w3.org/1999/02/22-rdf-syntax-ns#"
   xmlns:svg="http://www.w3.org/2000/svg"
   xmlns="http://www.w3.org/2000/svg"
   xmlns:sodipodi="http://sodipodi.sourceforge.net/DTD/sodipodi-0.dtd"
   xmlns:inkscape="http://www.inkscape.org/namespaces/inkscape"
   width="202.94833mm"
   height="103.91857mm"
   viewBox="0 0 202.94833 103.91857"
   version="1.1"
   id="svg8"
   sodipodi:docname="multichainlist_alice_bob_allpath.svg"
   inkscape:version="0.92.2 5c3e80d, 2017-08-06">
  <defs
     id="defs2" />
  <sodipodi:namedview
     id="base"
     pagecolor="#ffffff"
     bordercolor="#666666"
     borderopacity="1.0"
     inkscape:pageopacity="0.0"
     inkscape:pageshadow="2"
     inkscape:zoom="1.175095"
     inkscape:cx="256.56933"
     inkscape:cy="161.32735"
     inkscape:document-units="mm"
     inkscape:current-layer="layer1"
     showgrid="false"
     inkscape:window-width="1920"
     inkscape:window-height="1021"
     inkscape:window-x="0"
     inkscape:window-y="0"
     inkscape:window-maximized="1" />
  <metadata
     id="metadata5">
    <rdf:RDF>
      <cc:Work
         rdf:about="">
        <dc:format>image/svg+xml</dc:format>
        <dc:type
           rdf:resource="http://purl.org/dc/dcmitype/StillImage" />
        <dc:title />
      </cc:Work>
    </rdf:RDF>
  </metadata>
  <g
     inkscape:label="Ebene 1"
     inkscape:groupmode="layer"
     id="layer1"
     transform="translate(-6.6270236,-34.507975)">
    <path
       style="fill:none;fill-opacity:1;stroke:#000000;stroke-width:1.86500001;stroke-miterlimit:4;stroke-dasharray:none;stroke-opacity:1"
       d="M 7.5595236,35.440475 H 208.64285 V 137.49405 H 7.5595236 Z"
       id="rect4504"
       inkscape:connector-curvature="0" />
    <g
       aria-label="Alice"
       style="font-style:normal;font-weight:normal;font-size:10.58333302px;line-height:1.25;font-family:sans-serif;letter-spacing:0px;word-spacing:0px;fill:#000000;fill-opacity:1;stroke:none;stroke-width:0.26458332"
       id="text4536">
      <path
         d="m 11.772303,59.297195 2.868042,-7.524088 h 0.873332 l 2.878377,7.524088 H 17.36886 l -0.718302,-1.968872 h -3.147095 l -0.713134,1.968872 z m 2.030884,-2.785359 h 2.552815 l -1.276407,-3.50883 z"
         style="stroke-width:0.26458332"
         id="path4868"
         inkscape:connector-curvature="0" />
      <path
         d="m 20.293746,51.359696 v 7.937499 h -0.961181 v -7.937499 z"
         style="stroke-width:0.26458332"
         id="path4870"
         inkscape:connector-curvature="0" />
      <path
         d="m 21.84404,52.222692 q 0,-0.232544 0.139526,-0.392741 0.144694,-0.160197 0.423747,-0.160197 0.273885,0 0.418579,0.160197 0.149861,0.160197 0.149861,0.392741 0,0.222209 -0.149861,0.382406 -0.144694,0.155029 -0.418579,0.155029 -0.279053,0 -0.423747,-0.155029 -0.139526,-0.160197 -0.139526,-0.382406 z m 1.033528,1.483114 v 5.591389 h -0.961181 v -5.591389 z"
         style="stroke-width:0.26458332"
         id="path4872"
         inkscape:connector-curvature="0" />
      <path
         d="m 26.660283,58.615067 q 0.511596,0 0.894002,-0.304891 0.387573,-0.304891 0.423747,-0.780314 h 0.909505 q -0.03617,0.749308 -0.687297,1.312581 -0.651123,0.558105 -1.539957,0.558105 -1.260905,0 -1.875855,-0.83199 -0.609782,-0.831991 -0.609782,-1.958537 V 56.39298 q 0,-1.126546 0.609782,-1.958537 0.61495,-0.83199 1.875855,-0.83199 0.981852,0 1.586466,0.583943 0.604614,0.578776 0.640788,1.441773 h -0.909505 q -0.03617,-0.516764 -0.392741,-0.878499 -0.3514,-0.361735 -0.925008,-0.361735 -0.589112,0 -0.925008,0.299723 -0.33073,0.299723 -0.470256,0.759643 -0.134359,0.459921 -0.134359,0.945679 v 0.217041 q 0,0.490926 0.134359,0.950846 0.134359,0.459921 0.465088,0.759644 0.335897,0.294556 0.930176,0.294556 z"
         style="stroke-width:0.26458332"
         id="path4874"
         inkscape:connector-curvature="0" />
      <path
         d="m 34.38591,58.320511 q -0.273886,0.413411 -0.775147,0.749308 -0.501261,0.330729 -1.328084,0.330729 -1.167888,0 -1.870687,-0.759643 Q 29.71436,57.881261 29.71436,56.697871 V 56.48083 q 0,-0.914673 0.346232,-1.555461 0.3514,-0.645955 0.909505,-0.981852 0.558106,-0.341064 1.188558,-0.341064 1.198894,0 1.746664,0.785482 0.552938,0.780314 0.552938,1.953369 v 0.428914 h -3.782715 q 0.02067,0.769979 0.454752,1.312581 0.43925,0.537435 1.204061,0.537435 0.506429,0 0.857829,-0.206706 0.3514,-0.206705 0.61495,-0.552937 z m -2.227255,-3.932576 q -0.56844,0 -0.961181,0.413411 -0.392741,0.413411 -0.490926,1.188558 h 2.795695 v -0.07235 q -0.03617,-0.558106 -0.325562,-1.043864 -0.28422,-0.485758 -1.018026,-0.485758 z"
         style="stroke-width:0.26458332"
         id="path4876"
         inkscape:connector-curvature="0" />
    </g>
    <g
       aria-label="Bob"
       style="font-style:normal;font-variant:normal;font-weight:normal;font-stretch:normal;font-size:10.58333302px;line-height:1.25;font-family:sans-serif;-inkscape-font-specification:'sans-serif, Normal';font-variant-ligatures:normal;font-variant-caps:normal;font-variant-numeric:normal;font-feature-settings:normal;text-align:start;letter-spacing:0px;word-spacing:0px;writing-mode:lr-tb;text-anchor:start;fill:#000000;fill-opacity:1;stroke:none;stroke-width:0.26458332"
       id="text4540">
      <path
         d="m 18.094542,96.452019 q 0,1.054199 -0.682129,1.612304 -0.676961,0.558106 -1.803508,0.558106 h -2.635498 v -7.524088 h 2.464966 q 1.157552,0 1.803508,0.48059 0.651123,0.475424 0.651123,1.524455 0,0.521932 -0.299724,0.930176 -0.294555,0.403076 -0.81132,0.625285 0.63562,0.1757 0.971517,0.666626 0.341065,0.490926 0.341065,1.126546 z m -4.123779,-4.537191 v 2.387451 h 1.498616 q 0.640788,0 1.033529,-0.320394 0.39274,-0.320393 0.39274,-0.888834 0,-1.178223 -1.457275,-1.178223 z m 3.131591,4.547526 q 0,-0.630452 -0.346232,-0.992187 -0.341064,-0.366903 -1.100708,-0.366903 h -1.684651 v 2.707845 h 1.638142 q 0.707967,0 1.100708,-0.361735 0.392741,-0.366903 0.392741,-0.98702 z"
         id="path4861"
         inkscape:connector-curvature="0" />
      <path
         d="M 19.169411,95.888746 V 95.76989 q 0,-1.214396 0.682129,-2.025716 0.682129,-0.816488 1.855184,-0.816488 1.18339,0 1.865519,0.816488 0.687297,0.81132 0.687297,2.025716 v 0.118856 q 0,1.214396 -0.687297,2.025716 -0.682129,0.81132 -1.855183,0.81132 -1.178223,0 -1.86552,-0.81132 -0.682129,-0.81132 -0.682129,-2.025716 z m 0.956014,-0.118856 v 0.118856 q 0,0.83199 0.392741,1.441772 0.397909,0.609782 1.198894,0.609782 0.785481,0 1.18339,-0.609782 0.397908,-0.609782 0.397908,-1.441772 V 95.76989 q 0,-0.821655 -0.397908,-1.436605 -0.397909,-0.620117 -1.193726,-0.620117 -0.790649,0 -1.188558,0.620117 -0.392741,0.61495 -0.392741,1.436605 z"
         id="path4863"
         inkscape:connector-curvature="0" />
      <path
         d="m 30.191994,95.888746 q 0,1.224731 -0.568441,2.030883 -0.56844,0.806153 -1.607137,0.806153 -1.059366,0 -1.632975,-0.749308 l -0.05168,0.645955 h -0.8785 v -7.9375 h 0.961182 v 2.950724 q 0.568441,-0.707967 1.591634,-0.707967 1.054199,0 1.617472,0.785482 0.568441,0.785482 0.568441,2.067057 z M 27.76837,93.733839 q -0.521932,0 -0.847494,0.253214 -0.325561,0.248047 -0.506429,0.61495 v 2.433959 q 0.186035,0.372071 0.516764,0.625285 0.33073,0.253215 0.847494,0.253215 0.775146,0 1.111043,-0.594279 0.341065,-0.599447 0.341065,-1.431437 v -0.108521 q 0,-0.83199 -0.325562,-1.436605 -0.320394,-0.609781 -1.136881,-0.609781 z"
         id="path4865"
         inkscape:connector-curvature="0" />
    </g>
    <path
       style="fill:none;stroke:#000056;stroke-width:1.86500001;stroke-miterlimit:4;stroke-dasharray:none;stroke-opacity:1"
       d="M 91.546619,55.316902 A 20.856709,10.189538 0 0 1 70.689911,65.50644 20.856709,10.189538 0 0 1 49.833202,55.316902 20.856709,10.189538 0 0 1 70.689911,45.127364 20.856709,10.189538 0 0 1 91.546619,55.316902 Z"
       id="path4565"
       inkscape:connector-curvature="0" />
    <path
       style="fill:none;stroke:#000056;stroke-width:1.86500001;stroke-miterlimit:4;stroke-dasharray:none;stroke-opacity:1"
       d="M 148.38514,55.476116 A 20.856709,10.189538 0 0 1 127.52843,65.665654 20.856709,10.189538 0 0 1 106.67172,55.476116 20.856709,10.189538 0 0 1 127.52843,45.286578 20.856709,10.189538 0 0 1 148.38514,55.476116 Z"
       id="path4565-0"
       inkscape:connector-curvature="0" />
    <path
       style="fill:none;stroke:#000056;stroke-width:1.86500001;stroke-miterlimit:4;stroke-dasharray:none;stroke-opacity:1"
       d="M 199.81046,55.47612 A 20.856709,10.189538 0 0 1 178.95375,65.665658 20.856709,10.189538 0 0 1 158.09704,55.47612 20.856709,10.189538 0 0 1 178.95375,45.286582 20.856709,10.189538 0 0 1 199.81046,55.47612 Z"
       id="path4565-0-9"
       inkscape:connector-curvature="0" />
    <path
       style="fill:none;stroke:#000056;stroke-width:1.86500001;stroke-miterlimit:4;stroke-dasharray:none;stroke-opacity:1"
       d="M 91.546619,95.040184 A 20.856709,10.189538 0 0 1 70.689911,105.22972 20.856709,10.189538 0 0 1 49.833202,95.040184 20.856709,10.189538 0 0 1 70.689911,84.850646 20.856709,10.189538 0 0 1 91.546619,95.040184 Z"
       id="path4565-8"
       inkscape:connector-curvature="0" />
    <path
       style="fill:none;stroke:#000056;stroke-width:1.86500001;stroke-miterlimit:4;stroke-dasharray:none;stroke-opacity:1"
       d="M 148.38514,95.199394 A 20.856709,10.189538 0 0 1 127.52843,105.38893 20.856709,10.189538 0 0 1 106.67172,95.199394 20.856709,10.189538 0 0 1 127.52843,85.009856 20.856709,10.189538 0 0 1 148.38514,95.199394 Z"
       id="path4565-0-8"
       inkscape:connector-curvature="0" />
    <path
       style="fill:none;stroke:#000056;stroke-width:1.86500001;stroke-miterlimit:4;stroke-dasharray:none;stroke-opacity:1"
       d="M 199.81046,95.199402 A 20.856709,10.189538 0 0 1 178.95375,105.38894 20.856709,10.189538 0 0 1 158.09704,95.199402 20.856709,10.189538 0 0 1 178.95375,85.009864 20.856709,10.189538 0 0 1 199.81046,95.199402 Z"
       id="path4565-0-9-5"
       inkscape:connector-curvature="0" />
    <path
       style="fill:none;stroke:#69e3bc;stroke-width:1.86500001;stroke-miterlimit:4;stroke-dasharray:none;stroke-opacity:1"
       d="M 44.738438,40.510235 H 97.119034 V 133.33055 H 44.738438 Z"
       id="rect4620"
       inkscape:connector-curvature="0" />
    <path
       style="fill:none;stroke:#69e3bc;stroke-width:1.86500001;stroke-miterlimit:4;stroke-dasharray:none;stroke-opacity:1"
       d="M 97.119034,40.510231 H 204.4276 V 133.33055 H 97.119034 Z"
       id="rect4622"
       inkscape:connector-curvature="0" />
    <g
       aria-label="hug B."
       style="font-style:normal;font-weight:normal;font-size:10.58333302px;line-height:1.25;font-family:sans-serif;letter-spacing:0px;word-spacing:0px;fill:#000000;fill-opacity:1;stroke:none;stroke-width:0.26458332"
       id="text4626">
      <path
         d="m 59.250577,53.612546 q -0.45992,0 -0.81132,0.248047 -0.351399,0.248047 -0.552938,0.645956 v 3.994588 h -0.956014 v -7.9375 h 0.956014 v 3.012736 q 0.635621,-0.769979 1.648479,-0.769979 0.826822,0 1.307413,0.465088 0.485759,0.465088 0.485759,1.565796 v 3.663859 h -0.961182 v -3.674194 q 0,-0.656291 -0.289388,-0.935344 -0.28422,-0.279053 -0.826823,-0.279053 z"
         style="stroke-width:0.26458332"
         id="path4842"
         inkscape:connector-curvature="0" />
      <path
         d="m 66.226896,58.501137 -0.02067,-0.552938 q -0.258382,0.310059 -0.661458,0.485758 -0.403077,0.170533 -0.971517,0.170533 -0.821656,0 -1.328085,-0.485759 -0.506429,-0.485758 -0.506429,-1.601969 v -3.607015 h 0.956014 v 3.61735 q 0,0.754476 0.315227,1.012858 0.320394,0.253215 0.713134,0.253215 0.583944,0 0.935344,-0.222209 0.3514,-0.222209 0.521932,-0.589111 v -4.072103 h 0.961181 v 5.59139 z"
         style="stroke-width:0.26458332"
         id="path4844"
         inkscape:connector-curvature="0" />
      <path
         d="m 73.07919,58.382281 q 0,1.111043 -0.661458,1.715657 -0.661458,0.609782 -1.705322,0.609782 -0.434082,0 -1.064535,-0.211873 -0.630452,-0.211873 -1.00769,-0.759644 l 0.501261,-0.56844 q 0.3514,0.428914 0.733806,0.589111 0.382405,0.165365 0.764811,0.165365 0.676961,0 1.080037,-0.382406 0.403076,-0.377238 0.403076,-1.111043 v -0.490926 q -0.56844,0.666626 -1.565795,0.666626 -1.007691,0 -1.60197,-0.806153 -0.594279,-0.806152 -0.594279,-2.030883 v -0.108521 q 0,-1.281575 0.589112,-2.067057 0.594279,-0.785482 1.617472,-0.785482 1.028361,0 1.596802,0.72347 l 0.04651,-0.620117 h 0.868164 z m -3.762044,-2.614827 q 0,0.83199 0.346232,1.431437 0.3514,0.594279 1.126547,0.594279 0.511596,0 0.826822,-0.232544 0.320394,-0.232544 0.506429,-0.594279 v -2.547648 q -0.180867,-0.346232 -0.501261,-0.573609 -0.320394,-0.232544 -0.821655,-0.232544 -0.780314,0 -1.131714,0.609782 -0.3514,0.604615 -0.3514,1.436605 z"
         style="stroke-width:0.26458332"
         id="path4846"
         inkscape:connector-curvature="0" />
      <path
         d="m 82.432624,56.330727 q 0,1.054199 -0.682129,1.612304 -0.676961,0.558106 -1.803507,0.558106 H 77.31149 v -7.524089 h 2.464965 q 1.157553,0 1.803508,0.480591 0.651123,0.475423 0.651123,1.524455 0,0.521932 -0.299723,0.930176 -0.294556,0.403076 -0.81132,0.625285 0.63562,0.175699 0.971517,0.666625 0.341064,0.490927 0.341064,1.126547 z m -4.123779,-4.537191 v 2.387451 h 1.498616 q 0.640788,0 1.033529,-0.320394 0.392741,-0.320394 0.392741,-0.888834 0,-1.178223 -1.457276,-1.178223 z m 3.131592,4.547526 q 0,-0.630452 -0.346233,-0.992187 -0.341064,-0.366903 -1.100708,-0.366903 h -1.684651 v 2.707845 h 1.638143 q 0.707967,0 1.100708,-0.361735 0.392741,-0.366903 0.392741,-0.98702 z"
         style="stroke-width:0.26458332"
         id="path4848"
         inkscape:connector-curvature="0" />
      <path
         d="m 83.776211,57.994708 q 0,-0.242879 0.149861,-0.408244 0.15503,-0.170532 0.444418,-0.170532 0.289388,0 0.439249,0.170532 0.15503,0.165365 0.15503,0.408244 0,0.237711 -0.15503,0.403076 -0.149861,0.165364 -0.439249,0.165364 -0.289388,0 -0.444418,-0.165364 -0.149861,-0.165365 -0.149861,-0.403076 z"
         style="stroke-width:0.26458332"
         id="path4850"
         inkscape:connector-curvature="0" />
    </g>
    <g
       aria-label="hug A."
       style="font-style:normal;font-variant:normal;font-weight:normal;font-stretch:normal;font-size:10.58333302px;line-height:1.25;font-family:sans-serif;-inkscape-font-specification:'sans-serif, Normal';font-variant-ligatures:normal;font-variant-caps:normal;font-variant-numeric:normal;font-feature-settings:normal;text-align:start;letter-spacing:0px;word-spacing:0px;writing-mode:lr-tb;text-anchor:start;fill:#000000;fill-opacity:1;stroke:none;stroke-width:0.26458332"
       id="text4626-2">
      <path
         d="m 60.266652,93.096654 q -0.45992,0 -0.81132,0.248047 -0.351399,0.248047 -0.552937,0.645956 v 3.994588 h -0.956014 v -7.9375 h 0.956014 v 3.012736 q 0.63562,-0.769979 1.648478,-0.769979 0.826823,0 1.307413,0.465088 0.485759,0.465088 0.485759,1.565796 v 3.663859 h -0.961182 v -3.674194 q 0,-0.656291 -0.289388,-0.935344 -0.28422,-0.279053 -0.826823,-0.279053 z"
         id="path4831"
         inkscape:connector-curvature="0" />
      <path
         d="M 67.242971,97.985245 67.2223,97.432307 q -0.258382,0.310059 -0.661458,0.485758 -0.403076,0.170533 -0.971517,0.170533 -0.821655,0 -1.328084,-0.485759 -0.506429,-0.485758 -0.506429,-1.601969 v -3.607015 h 0.956014 v 3.61735 q 0,0.754476 0.315226,1.012858 0.320394,0.253215 0.713135,0.253215 0.583943,0 0.935343,-0.222209 0.3514,-0.222209 0.521932,-0.589111 v -4.072103 h 0.961181 v 5.59139 z"
         id="path4833"
         inkscape:connector-curvature="0" />
      <path
         d="m 74.095266,97.866389 q 0,1.111043 -0.661459,1.715657 -0.661458,0.609784 -1.705322,0.609784 -0.434082,0 -1.064534,-0.211875 -0.630453,-0.211873 -1.007691,-0.759644 l 0.501262,-0.56844 q 0.351399,0.428914 0.733805,0.589111 0.382405,0.165365 0.764811,0.165365 0.676961,0 1.080037,-0.382406 0.403077,-0.377238 0.403077,-1.111043 v -0.490926 q -0.568441,0.666626 -1.565796,0.666626 -1.007691,0 -1.60197,-0.806153 -0.594279,-0.806152 -0.594279,-2.030883 v -0.108521 q 0,-1.281575 0.589112,-2.067057 0.594279,-0.785482 1.617472,-0.785482 1.028361,0 1.596802,0.72347 l 0.04651,-0.620117 h 0.868164 z m -3.762045,-2.614827 q 0,0.83199 0.346232,1.431437 0.3514,0.594279 1.126547,0.594279 0.511596,0 0.826823,-0.232544 0.320393,-0.232544 0.506429,-0.594279 v -2.547648 q -0.180868,-0.346232 -0.501262,-0.573609 -0.320394,-0.232544 -0.821655,-0.232544 -0.780314,0 -1.131714,0.609782 -0.3514,0.604615 -0.3514,1.436605 z"
         id="path4835"
         inkscape:connector-curvature="0" />
      <path
         d="m 77.604095,97.985245 2.868042,-7.524089 h 0.873331 l 2.878378,7.524089 H 83.200652 L 82.48235,96.016373 h -3.147095 l -0.713134,1.968872 z m 2.030884,-2.78536 h 2.552815 l -1.276408,-3.50883 z"
         id="path4837"
         inkscape:connector-curvature="0" />
      <path
         d="m 85.102344,97.478816 q 0,-0.242879 0.149862,-0.408244 0.155029,-0.170532 0.444417,-0.170532 0.289388,0 0.43925,0.170532 0.155029,0.165365 0.155029,0.408244 0,0.237711 -0.155029,0.403076 -0.149862,0.165364 -0.43925,0.165364 -0.289388,0 -0.444417,-0.165364 -0.149862,-0.165365 -0.149862,-0.403076 z"
         id="path4839"
         inkscape:connector-curvature="0" />
    </g>
    <g
       aria-label="dance"
       style="font-style:normal;font-weight:normal;font-size:10.58333302px;line-height:1.25;font-family:sans-serif;letter-spacing:0px;word-spacing:0px;fill:#000000;fill-opacity:1;stroke:none;stroke-width:0.26458332"
       id="text4650">
      <path
         d="m 117.37584,58.978771 -0.0465,-0.599446 q -0.57361,0.702799 -1.59681,0.702799 -0.98702,0 -1.5968,-0.806152 -0.60461,-0.806153 -0.60461,-2.030884 v -0.10852 q 0,-1.281576 0.60461,-2.067058 0.60978,-0.785481 1.60714,-0.785481 0.98702,0 1.55029,0.661458 v -2.904216 h 0.96118 v 7.9375 z m -2.88354,-2.733683 q 0,0.831991 0.3514,1.431437 0.3514,0.594279 1.12655,0.594279 0.50126,0 0.81648,-0.227376 0.31523,-0.227376 0.50643,-0.583944 v -2.573486 q -0.18603,-0.346232 -0.50643,-0.568441 -0.31522,-0.227376 -0.80615,-0.227376 -0.78031,0 -1.13688,0.609782 -0.3514,0.604614 -0.3514,1.436605 z"
         style="stroke-width:0.26458332"
         id="path4820"
         inkscape:connector-curvature="0" />
      <path
         d="m 123.19461,58.978771 q -0.093,-0.201538 -0.13436,-0.589111 -0.26872,0.28422 -0.67179,0.490926 -0.40308,0.201538 -0.91984,0.201538 -0.85783,0 -1.3746,-0.480591 -0.51676,-0.480591 -0.51676,-1.178222 0,-0.89917 0.68213,-1.364258 0.68213,-0.470256 1.83451,-0.470256 h 0.94568 V 55.14438 q 0,-0.496094 -0.29972,-0.790649 -0.29456,-0.299724 -0.8785,-0.299724 -0.5426,0 -0.8785,0.268718 -0.33073,0.26355 -0.33073,0.614949 h -0.95601 q 0,-0.599446 0.60461,-1.126546 0.60461,-0.527099 1.61747,-0.527099 0.90951,0 1.49345,0.465087 0.58394,0.465088 0.58394,1.405599 v 2.604492 q 0,0.279053 0.0465,0.594279 0.0517,0.315227 0.14987,0.542603 v 0.08268 z m -1.58647,-0.733805 q 0.51677,0 0.89401,-0.258382 0.3824,-0.258382 0.53743,-0.573609 v -1.152384 h -0.79065 q -1.71049,0 -1.71049,1.033529 0,0.397908 0.26872,0.676961 0.26872,0.273885 0.80098,0.273885 z"
         style="stroke-width:0.26458332"
         id="path4822"
         inkscape:connector-curvature="0" />
      <path
         d="m 127.82999,54.090181 q -0.45992,0 -0.81132,0.248047 -0.3514,0.248047 -0.55294,0.645955 v 3.994588 h -0.95602 v -5.59139 h 0.90434 l 0.031,0.697632 q 0.63562,-0.800984 1.66915,-0.800984 0.82682,0 1.30741,0.465087 0.48576,0.465088 0.48576,1.565796 v 3.663859 h -0.96118 v -3.674194 q 0,-0.656291 -0.28939,-0.935343 -0.28422,-0.279053 -0.82682,-0.279053 z"
         style="stroke-width:0.26458332"
         id="path4824"
         inkscape:connector-curvature="0" />
      <path
         d="m 133.59708,58.296642 q 0.51159,0 0.894,-0.304891 0.38757,-0.304891 0.42374,-0.780314 h 0.90951 q -0.0362,0.749309 -0.6873,1.312582 -0.65112,0.558105 -1.53995,0.558105 -1.26091,0 -1.87586,-0.83199 -0.60978,-0.831991 -0.60978,-1.958537 v -0.217041 q 0,-1.126546 0.60978,-1.958537 0.61495,-0.83199 1.87586,-0.83199 0.98185,0 1.58646,0.583943 0.60462,0.578776 0.64079,1.441773 h -0.90951 q -0.0362,-0.516765 -0.39274,-0.8785 -0.3514,-0.361735 -0.925,-0.361735 -0.58912,0 -0.92501,0.299724 -0.33073,0.299723 -0.47026,0.759643 -0.13436,0.45992 -0.13436,0.945679 v 0.217041 q 0,0.490926 0.13436,0.950846 0.13436,0.45992 0.46509,0.759644 0.3359,0.294555 0.93018,0.294555 z"
         style="stroke-width:0.26458332"
         id="path4826"
         inkscape:connector-curvature="0" />
      <path
         d="m 141.3227,58.002087 q -0.27388,0.413411 -0.77514,0.749308 -0.50126,0.330729 -1.32809,0.330729 -1.16789,0 -1.87068,-0.759643 -0.69764,-0.759644 -0.69764,-1.943034 v -0.217041 q 0,-0.914673 0.34624,-1.555461 0.3514,-0.645955 0.9095,-0.981852 0.55811,-0.341064 1.18856,-0.341064 1.19889,0 1.74666,0.785481 0.55294,0.780314 0.55294,1.953369 v 0.428915 h -3.78271 q 0.0207,0.769979 0.45475,1.312581 0.43925,0.537435 1.20406,0.537435 0.50643,0 0.85783,-0.206706 0.3514,-0.206705 0.61495,-0.552938 z m -2.22725,-3.932577 q -0.56844,0 -0.96118,0.413412 -0.39274,0.413411 -0.49093,1.188558 h 2.7957 v -0.07235 q -0.0362,-0.558106 -0.32557,-1.043864 -0.28422,-0.485759 -1.01802,-0.485759 z"
         style="stroke-width:0.26458332"
         id="path4828"
         inkscape:connector-curvature="0" />
    </g>
    <g
       aria-label="dance"
       style="font-style:normal;font-weight:normal;font-size:10.58333302px;line-height:1.25;font-family:sans-serif;letter-spacing:0px;word-spacing:0px;fill:#000000;fill-opacity:1;stroke:none;stroke-width:0.26458332"
       id="text4650-2">
      <path
         d="m 169.34415,98.559227 -0.0465,-0.599447 q -0.57361,0.7028 -1.5968,0.7028 -0.98702,0 -1.5968,-0.806152 -0.60461,-0.806153 -0.60461,-2.030884 v -0.108521 q 0,-1.281575 0.60461,-2.067057 0.60978,-0.785482 1.60714,-0.785482 0.98702,0 1.55029,0.661459 v -2.904216 h 0.96118 v 7.9375 z m -2.88354,-2.733683 q 0,0.83199 0.3514,1.431437 0.3514,0.594279 1.12654,0.594279 0.50126,0 0.81649,-0.227376 0.31523,-0.227377 0.50643,-0.583944 v -2.573486 q -0.18604,-0.346232 -0.50643,-0.568441 -0.31523,-0.227376 -0.80615,-0.227376 -0.78032,0 -1.13688,0.609782 -0.3514,0.604614 -0.3514,1.436604 z"
         style="stroke-width:0.26458332"
         id="path4809"
         inkscape:connector-curvature="0" />
      <path
         d="m 175.16292,98.559227 q -0.093,-0.201538 -0.13436,-0.589111 -0.26872,0.28422 -0.67179,0.490926 -0.40308,0.201538 -0.91984,0.201538 -0.85783,0 -1.3746,-0.480591 -0.51676,-0.480591 -0.51676,-1.178223 0,-0.899169 0.68213,-1.364257 0.68213,-0.470256 1.83451,-0.470256 h 0.94568 v -0.444417 q 0,-0.496094 -0.29972,-0.79065 -0.29456,-0.299723 -0.8785,-0.299723 -0.54261,0 -0.8785,0.268718 -0.33073,0.263549 -0.33073,0.614949 h -0.95602 q 0,-0.599446 0.60462,-1.126546 0.60461,-0.5271 1.61747,-0.5271 0.90951,0 1.49345,0.465088 0.58394,0.465088 0.58394,1.405599 v 2.604492 q 0,0.279053 0.0465,0.594279 0.0517,0.315226 0.14986,0.542603 v 0.08268 z m -1.58647,-0.733805 q 0.51677,0 0.894,-0.258382 0.38241,-0.258383 0.53744,-0.573609 v -1.152384 h -0.79065 q -1.71049,0 -1.71049,1.033528 0,0.397909 0.26872,0.676962 0.26871,0.273885 0.80098,0.273885 z"
         style="stroke-width:0.26458332"
         id="path4811"
         inkscape:connector-curvature="0" />
      <path
         d="m 179.79829,93.670637 q -0.45992,0 -0.81132,0.248047 -0.3514,0.248046 -0.55293,0.645955 v 3.994588 h -0.95602 v -5.59139 h 0.90434 l 0.031,0.697632 q 0.63563,-0.800985 1.66915,-0.800985 0.82683,0 1.30742,0.465088 0.48576,0.465088 0.48576,1.565796 v 3.663859 h -0.96119 v -3.674194 q 0,-0.656291 -0.28938,-0.935344 -0.28422,-0.279052 -0.82683,-0.279052 z"
         style="stroke-width:0.26458332"
         id="path4813"
         inkscape:connector-curvature="0" />
      <path
         d="m 185.56538,97.877098 q 0.5116,0 0.894,-0.304891 0.38758,-0.304891 0.42375,-0.780314 h 0.90951 q -0.0362,0.749308 -0.6873,1.312581 -0.65112,0.558106 -1.53996,0.558106 -1.2609,0 -1.87585,-0.831991 -0.60978,-0.83199 -0.60978,-1.958536 v -0.217041 q 0,-1.126547 0.60978,-1.958537 0.61495,-0.831991 1.87585,-0.831991 0.98185,0 1.58647,0.583944 0.60461,0.578776 0.64079,1.441772 h -0.90951 q -0.0362,-0.516764 -0.39274,-0.878499 -0.3514,-0.361735 -0.92501,-0.361735 -0.58911,0 -0.92501,0.299723 -0.33072,0.299724 -0.47025,0.759644 -0.13436,0.45992 -0.13436,0.945679 v 0.217041 q 0,0.490926 0.13436,0.950846 0.13436,0.45992 0.46509,0.759643 0.33589,0.294556 0.93017,0.294556 z"
         style="stroke-width:0.26458332"
         id="path4815"
         inkscape:connector-curvature="0" />
      <path
         d="m 193.29101,97.582542 q -0.27388,0.413412 -0.77515,0.749309 -0.50126,0.330729 -1.32808,0.330729 -1.16789,0 -1.87069,-0.759644 -0.69763,-0.759643 -0.69763,-1.943033 v -0.217041 q 0,-0.914673 0.34623,-1.555461 0.3514,-0.645955 0.90951,-0.981852 0.5581,-0.341065 1.18856,-0.341065 1.19889,0 1.74666,0.785482 0.55294,0.780314 0.55294,1.953369 v 0.428915 h -3.78272 q 0.0207,0.769978 0.45476,1.312581 0.43924,0.537435 1.20406,0.537435 0.50643,0 0.85782,-0.206706 0.3514,-0.206706 0.61495,-0.552938 z m -2.22725,-3.932576 q -0.56844,0 -0.96119,0.413412 -0.39274,0.413411 -0.49092,1.188557 h 2.79569 v -0.07235 q -0.0362,-0.558105 -0.32556,-1.043863 -0.28422,-0.485759 -1.01802,-0.485759 z"
         style="stroke-width:0.26458332"
         id="path4817"
         inkscape:connector-curvature="0" />
    </g>
    <g
       aria-label="paint p."
       style="font-style:normal;font-variant:normal;font-weight:normal;font-stretch:normal;font-size:10.58333302px;line-height:1.25;font-family:sans-serif;-inkscape-font-specification:'sans-serif, Normal';font-variant-ligatures:normal;font-variant-caps:normal;font-variant-numeric:normal;font-feature-settings:normal;text-align:start;letter-spacing:0px;word-spacing:0px;writing-mode:lr-tb;text-anchor:start;fill:#000000;fill-opacity:1;stroke:none;stroke-width:0.26458332"
       id="text4672">
      <path
         d="m 165.67722,58.445279 q -1.00769,0 -1.5968,-0.645955 v 2.692342 h -0.96118 v -7.741129 h 0.8785 l 0.0465,0.614949 q 0.58911,-0.718302 1.61747,-0.718302 1.05936,0 1.62264,0.785482 0.56327,0.785481 0.56327,2.067057 v 0.10852 q 0,1.224732 -0.56844,2.030884 -0.56327,0.806152 -1.60197,0.806152 z m -0.29456,-4.991943 q -0.48575,0 -0.80098,0.222209 -0.31523,0.217041 -0.50126,0.54777 v 2.676839 q 0.1912,0.330729 0.50126,0.54777 0.31523,0.211874 0.81132,0.211874 0.77515,0 1.13171,-0.609782 0.36174,-0.609782 0.36174,-1.441773 v -0.10852 q 0,-0.831991 -0.36174,-1.436605 -0.35656,-0.609782 -1.14205,-0.609782 z"
         id="path4794"
         inkscape:connector-curvature="0" />
      <path
         d="m 172.52952,58.341927 q -0.093,-0.201539 -0.13436,-0.589112 -0.26872,0.284221 -0.6718,0.490926 -0.40307,0.201538 -0.91984,0.201538 -0.85783,0 -1.37459,-0.48059 -0.51676,-0.480591 -0.51676,-1.178223 0,-0.89917 0.68212,-1.364258 0.68213,-0.470255 1.83452,-0.470255 h 0.94568 v -0.444418 q 0,-0.496093 -0.29973,-0.790649 -0.29455,-0.299723 -0.8785,-0.299723 -0.5426,0 -0.8785,0.268717 -0.33072,0.26355 -0.33072,0.61495 h -0.95602 q 0,-0.599447 0.60462,-1.126546 0.60461,-0.5271 1.61747,-0.5271 0.9095,0 1.49345,0.465088 0.58394,0.465088 0.58394,1.405599 v 2.604492 q 0,0.279053 0.0465,0.594279 0.0517,0.315226 0.14986,0.542602 v 0.08268 z m -1.58647,-0.733806 q 0.51676,0 0.894,-0.258382 0.38241,-0.258382 0.53744,-0.573608 v -1.152385 h -0.79065 q -1.71049,0 -1.71049,1.033529 0,0.397908 0.26871,0.676961 0.26872,0.273885 0.80099,0.273885 z"
         id="path4796"
         inkscape:connector-curvature="0" />
      <path
         d="m 174.84979,51.267423 q 0,-0.232544 0.13952,-0.392741 0.1447,-0.160197 0.42375,-0.160197 0.27389,0 0.41858,0.160197 0.14986,0.160197 0.14986,0.392741 0,0.222209 -0.14986,0.382406 -0.14469,0.155029 -0.41858,0.155029 -0.27905,0 -0.42375,-0.155029 -0.13952,-0.160197 -0.13952,-0.382406 z m 1.03353,1.483114 v 5.59139 h -0.96119 v -5.59139 z"
         id="path4798"
         inkscape:connector-curvature="0" />
      <path
         d="m 179.74871,53.453336 q -0.45992,0 -0.81132,0.248047 -0.3514,0.248047 -0.55294,0.645955 v 3.994589 h -0.95601 v -5.59139 h 0.90434 l 0.031,0.697632 q 0.63562,-0.800985 1.66915,-0.800985 0.82683,0 1.30742,0.465088 0.48576,0.465088 0.48576,1.565796 v 3.663859 h -0.96119 v -3.674195 q 0,-0.65629 -0.28938,-0.935343 -0.28422,-0.279053 -0.82683,-0.279053 z"
         id="path4800"
         inkscape:connector-curvature="0" />
      <path
         d="m 185.64499,58.341927 q -0.11368,0.03617 -0.29972,0.06718 -0.18087,0.03617 -0.43925,0.03617 -0.53227,0 -0.9095,-0.325561 -0.37724,-0.325562 -0.37724,-1.167887 V 53.48434 h -1.0232 v -0.733805 h 1.0232 v -1.35909 h 0.95601 v 1.35909 h 1.04387 v 0.733805 h -1.04387 v 3.472656 q 0,0.428915 0.18604,0.54777 0.18603,0.118856 0.42891,0.118856 0.11886,0 0.24805,-0.02067 0.13436,-0.02584 0.20154,-0.04134 z"
         id="path4802"
         inkscape:connector-curvature="0" />
      <path
         d="m 191.92885,58.445279 q -1.00769,0 -1.5968,-0.645955 v 2.692342 h -0.96119 v -7.741129 h 0.8785 l 0.0465,0.614949 q 0.58911,-0.718302 1.61747,-0.718302 1.05937,0 1.62264,0.785482 0.56328,0.785481 0.56328,2.067057 v 0.10852 q 0,1.224732 -0.56844,2.030884 -0.56328,0.806152 -1.60197,0.806152 z m -0.29456,-4.991943 q -0.48576,0 -0.80098,0.222209 -0.31523,0.217041 -0.50126,0.54777 v 2.676839 q 0.1912,0.330729 0.50126,0.54777 0.31522,0.211874 0.81132,0.211874 0.77514,0 1.13171,-0.609782 0.36174,-0.609782 0.36174,-1.441773 v -0.10852 q 0,-0.831991 -0.36174,-1.436605 -0.35657,-0.609782 -1.14205,-0.609782 z"
         id="path4804"
         inkscape:connector-curvature="0" />
      <path
         d="m 195.34466,57.835498 q 0,-0.24288 0.14986,-0.408244 0.15503,-0.170532 0.44442,-0.170532 0.28939,0 0.43925,0.170532 0.15503,0.165364 0.15503,0.408244 0,0.237711 -0.15503,0.403076 -0.14986,0.165364 -0.43925,0.165364 -0.28939,0 -0.44442,-0.165364 -0.14986,-0.165365 -0.14986,-0.403076 z"
         id="path4806"
         inkscape:connector-curvature="0" />
    </g>
    <g
       aria-label="paint p."
       style="font-style:normal;font-variant:normal;font-weight:normal;font-stretch:normal;font-size:10.58333302px;line-height:1.25;font-family:sans-serif;-inkscape-font-specification:'sans-serif, Normal';font-variant-ligatures:normal;font-variant-caps:normal;font-variant-numeric:normal;font-feature-settings:normal;text-align:start;letter-spacing:0px;word-spacing:0px;writing-mode:lr-tb;text-anchor:start;fill:#000000;fill-opacity:1;stroke:none;stroke-width:0.26458332"
       id="text4672-7">
      <path
         d="m 114.17548,98.439626 q -1.00769,0 -1.5968,-0.645955 v 2.692339 h -0.96118 v -7.741127 h 0.8785 l 0.0465,0.61495 q 0.58911,-0.718302 1.61747,-0.718302 1.05936,0 1.62264,0.785481 0.56327,0.785482 0.56327,2.067058 v 0.10852 q 0,1.224731 -0.56844,2.030884 -0.56327,0.806152 -1.60197,0.806152 z m -0.29455,-4.991943 q -0.48576,0 -0.80099,0.222208 -0.31523,0.217042 -0.50126,0.547771 v 2.676839 q 0.1912,0.330729 0.50126,0.54777 0.31523,0.211873 0.81132,0.211873 0.77515,0 1.13171,-0.609782 0.36174,-0.609781 0.36174,-1.441772 v -0.10852 q 0,-0.831991 -0.36174,-1.436605 -0.35656,-0.609782 -1.14204,-0.609782 z"
         style="stroke-width:0.26458332"
         id="path4779"
         inkscape:connector-curvature="0" />
      <path
         d="m 121.02778,98.336273 q -0.093,-0.201538 -0.13436,-0.589111 -0.26872,0.28422 -0.6718,0.490926 -0.40307,0.201538 -0.91984,0.201538 -0.85783,0 -1.37459,-0.480591 -0.51676,-0.480591 -0.51676,-1.178222 0,-0.89917 0.68212,-1.364258 0.68213,-0.470256 1.83452,-0.470256 h 0.94568 v -0.444417 q 0,-0.496094 -0.29973,-0.790649 -0.29455,-0.299724 -0.8785,-0.299724 -0.5426,0 -0.8785,0.268718 -0.33072,0.26355 -0.33072,0.614949 h -0.95602 q 0,-0.599446 0.60462,-1.126546 0.60461,-0.527099 1.61747,-0.527099 0.9095,0 1.49345,0.465087 0.58394,0.465088 0.58394,1.405599 v 2.604492 q 0,0.279053 0.0465,0.594279 0.0517,0.315227 0.14986,0.542603 v 0.08268 z m -1.58647,-0.733805 q 0.51676,0 0.894,-0.258382 0.38241,-0.258382 0.53744,-0.573609 v -1.152384 h -0.79065 q -1.71049,0 -1.71049,1.033529 0,0.397908 0.26871,0.676961 0.26872,0.273885 0.80099,0.273885 z"
         style="stroke-width:0.26458332"
         id="path4781"
         inkscape:connector-curvature="0" />
      <path
         d="m 123.34805,91.26177 q 0,-0.232544 0.13952,-0.392741 0.1447,-0.160197 0.42375,-0.160197 0.27389,0 0.41858,0.160197 0.14986,0.160197 0.14986,0.392741 0,0.222208 -0.14986,0.382405 -0.14469,0.15503 -0.41858,0.15503 -0.27905,0 -0.42375,-0.15503 -0.13952,-0.160197 -0.13952,-0.382405 z m 1.03353,1.483113 v 5.59139 h -0.96119 v -5.59139 z"
         style="stroke-width:0.26458332"
         id="path4783"
         inkscape:connector-curvature="0" />
      <path
         d="m 128.24697,93.447683 q -0.45992,0 -0.81132,0.248047 -0.3514,0.248047 -0.55293,0.645955 v 3.994588 h -0.95602 v -5.59139 h 0.90434 l 0.031,0.697632 q 0.63563,-0.800984 1.66915,-0.800984 0.82683,0 1.30742,0.465087 0.48576,0.465088 0.48576,1.565796 v 3.663859 h -0.96119 v -3.674194 q 0,-0.656291 -0.28938,-0.935343 -0.28422,-0.279053 -0.82683,-0.279053 z"
         style="stroke-width:0.26458332"
         id="path4785"
         inkscape:connector-curvature="0" />
      <path
         d="m 134.14325,98.336273 q -0.11368,0.03617 -0.29972,0.06718 -0.18087,0.03617 -0.43925,0.03617 -0.53227,0 -0.9095,-0.325561 -0.37724,-0.325562 -0.37724,-1.167888 v -3.467488 h -1.02319 V 92.74488 h 1.02319 v -1.35909 h 0.95601 v 1.35909 h 1.04387 v 0.733806 h -1.04387 v 3.472656 q 0,0.428914 0.18604,0.54777 0.18603,0.118856 0.42891,0.118856 0.11886,0 0.24805,-0.02067 0.13436,-0.02584 0.20154,-0.04134 z"
         style="stroke-width:0.26458332"
         id="path4787"
         inkscape:connector-curvature="0" />
      <path
         d="m 140.42711,98.439626 q -1.00769,0 -1.5968,-0.645955 v 2.692339 h -0.96119 v -7.741127 h 0.8785 l 0.0465,0.61495 q 0.58911,-0.718302 1.61748,-0.718302 1.05936,0 1.62264,0.785481 0.56327,0.785482 0.56327,2.067058 v 0.10852 q 0,1.224731 -0.56844,2.030884 -0.56328,0.806152 -1.60197,0.806152 z m -0.29456,-4.991943 q -0.48576,0 -0.80098,0.222208 -0.31523,0.217042 -0.50126,0.547771 v 2.676839 q 0.1912,0.330729 0.50126,0.54777 0.31522,0.211873 0.81132,0.211873 0.77514,0 1.13171,-0.609782 0.36174,-0.609781 0.36174,-1.441772 v -0.10852 q 0,-0.831991 -0.36174,-1.436605 -0.35657,-0.609782 -1.14205,-0.609782 z"
         style="stroke-width:0.26458332"
         id="path4789"
         inkscape:connector-curvature="0" />
      <path
         d="m 143.84292,97.829844 q 0,-0.242879 0.14986,-0.408244 0.15503,-0.170532 0.44442,-0.170532 0.28939,0 0.43925,0.170532 0.15503,0.165365 0.15503,0.408244 0,0.237712 -0.15503,0.403076 -0.14986,0.165365 -0.43925,0.165365 -0.28939,0 -0.44442,-0.165365 -0.14986,-0.165364 -0.14986,-0.403076 z"
         style="stroke-width:0.26458332"
         id="path4791"
         inkscape:connector-curvature="0" />
    </g>
    <g
       aria-label="prio high"
       style="font-style:normal;font-weight:normal;font-size:10.58333302px;line-height:1.25;font-family:sans-serif;letter-spacing:0px;word-spacing:0px;fill:#000000;fill-opacity:1;stroke:none;stroke-width:0.26458332"
       id="text4698">
      <path
         d="m 51.840963,126.42859 q -1.007691,0 -1.596802,-0.64595 v 2.69234 h -0.961182 v -7.74113 h 0.8785 l 0.04651,0.61495 q 0.589112,-0.7183 1.617473,-0.7183 1.059367,0 1.62264,0.78548 0.563273,0.78548 0.563273,2.06706 v 0.10852 q 0,1.22473 -0.568441,2.03088 -0.563273,0.80615 -1.601969,0.80615 z m -0.294556,-4.99194 q -0.485758,0 -0.800985,0.22221 -0.315226,0.21704 -0.501261,0.54777 v 2.67684 q 0.191203,0.33073 0.501261,0.54777 0.315227,0.21187 0.81132,0.21187 0.775147,0 1.131714,-0.60978 0.361735,-0.60978 0.361735,-1.44177 v -0.10852 q 0,-0.83199 -0.361735,-1.43661 -0.356567,-0.60978 -1.142049,-0.60978 z"
         style="stroke-width:0.26458332"
         id="path4762"
         inkscape:connector-curvature="0" />
      <path
         d="m 57.473694,121.55034 q -0.490926,0 -0.806153,0.22221 -0.315226,0.21704 -0.470255,0.58394 v 3.96875 h -0.956014 v -5.59139 h 0.930176 l 0.02067,0.64079 q 0.211874,-0.34107 0.537435,-0.5426 0.330729,-0.20154 0.79065,-0.20154 0.268717,0 0.423746,0.0724 l -0.0052,0.88883 q -0.211874,-0.0413 -0.465088,-0.0413 z"
         style="stroke-width:0.26458332"
         id="path4764"
         inkscape:connector-curvature="0" />
      <path
         d="m 58.843119,119.25074 q 0,-0.23255 0.139527,-0.39274 0.144694,-0.1602 0.423746,-0.1602 0.273885,0 0.418579,0.1602 0.149862,0.16019 0.149862,0.39274 0,0.22221 -0.149862,0.3824 -0.144694,0.15503 -0.418579,0.15503 -0.279052,0 -0.423746,-0.15503 -0.139527,-0.16019 -0.139527,-0.3824 z m 1.033529,1.48311 v 5.59139 h -0.961182 v -5.59139 z"
         style="stroke-width:0.26458332"
         id="path4766"
         inkscape:connector-curvature="0" />
      <path
         d="m 61.168558,123.59156 v -0.11886 q 0,-1.21439 0.682129,-2.02571 0.682129,-0.81649 1.855184,-0.81649 1.18339,0 1.865519,0.81649 0.687297,0.81132 0.687297,2.02571 v 0.11886 q 0,1.21439 -0.687297,2.02571 -0.682129,0.81132 -1.855184,0.81132 -1.178222,0 -1.865519,-0.81132 -0.682129,-0.81132 -0.682129,-2.02571 z m 0.956014,-0.11886 v 0.11886 q 0,0.83199 0.392741,1.44177 0.397909,0.60978 1.198893,0.60978 0.785482,0 1.183391,-0.60978 0.397908,-0.60978 0.397908,-1.44177 v -0.11886 q 0,-0.82165 -0.397908,-1.4366 -0.397909,-0.62012 -1.193726,-0.62012 -0.790649,0 -1.188558,0.62012 -0.392741,0.61495 -0.392741,1.4366 z"
         style="stroke-width:0.26458332"
         id="path4768"
         inkscape:connector-curvature="0" />
      <path
         d="m 72.403014,121.43665 q -0.45992,0 -0.81132,0.24805 -0.351399,0.24804 -0.552937,0.64595 v 3.99459 h -0.956014 v -7.9375 h 0.956014 v 3.01274 q 0.63562,-0.76998 1.648478,-0.76998 0.826823,0 1.307413,0.46509 0.485759,0.46508 0.485759,1.56579 v 3.66386 h -0.961182 v -3.67419 q 0,-0.65629 -0.289388,-0.93535 -0.28422,-0.27905 -0.826823,-0.27905 z"
         style="stroke-width:0.26458332"
         id="path4770"
         inkscape:connector-curvature="0" />
      <path
         d="m 75.917012,119.25074 q 0,-0.23255 0.139526,-0.39274 0.144694,-0.1602 0.423747,-0.1602 0.273885,0 0.418579,0.1602 0.149862,0.16019 0.149862,0.39274 0,0.22221 -0.149862,0.3824 -0.144694,0.15503 -0.418579,0.15503 -0.279053,0 -0.423747,-0.15503 -0.139526,-0.16019 -0.139526,-0.3824 z m 1.033528,1.48311 v 5.59139 h -0.961181 v -5.59139 z"
         style="stroke-width:0.26458332"
         id="path4772"
         inkscape:connector-curvature="0" />
      <path
         d="m 82.986348,126.20639 q 0,1.11104 -0.661458,1.71565 -0.661458,0.60978 -1.705322,0.60978 -0.434082,0 -1.064535,-0.21187 -0.630452,-0.21187 -1.00769,-0.75964 l 0.501261,-0.56844 q 0.3514,0.42891 0.733806,0.58911 0.382405,0.16536 0.764811,0.16536 0.676961,0 1.080037,-0.3824 0.403076,-0.37724 0.403076,-1.11105 v -0.49092 q -0.56844,0.66662 -1.565796,0.66662 -1.00769,0 -1.601969,-0.80615 -0.594279,-0.80615 -0.594279,-2.03088 v -0.10852 q 0,-1.28158 0.589111,-2.06706 0.594279,-0.78548 1.617473,-0.78548 1.028361,0 1.596801,0.72347 l 0.04651,-0.62012 h 0.868164 z m -3.762044,-2.61483 q 0,0.83199 0.346232,1.43144 0.3514,0.59427 1.126546,0.59427 0.511597,0 0.826823,-0.23254 0.320394,-0.23254 0.506429,-0.59428 v -2.54765 q -0.180867,-0.34623 -0.501261,-0.57361 -0.320394,-0.23254 -0.821655,-0.23254 -0.780314,0 -1.131714,0.60978 -0.3514,0.60462 -0.3514,1.43661 z"
         style="stroke-width:0.26458332"
         id="path4774"
         inkscape:connector-curvature="0" />
      <path
         d="m 86.769063,121.43665 q -0.45992,0 -0.81132,0.24805 -0.351399,0.24804 -0.552938,0.64595 v 3.99459 h -0.956014 v -7.9375 h 0.956014 v 3.01274 q 0.635621,-0.76998 1.648479,-0.76998 0.826822,0 1.307413,0.46509 0.485759,0.46508 0.485759,1.56579 v 3.66386 h -0.961182 v -3.67419 q 0,-0.65629 -0.289388,-0.93535 -0.28422,-0.27905 -0.826823,-0.27905 z"
         style="stroke-width:0.26458332"
         id="path4776"
         inkscape:connector-curvature="0" />
    </g>
    <g
       aria-label="prio low"
       style="font-style:normal;font-variant:normal;font-weight:normal;font-stretch:normal;font-size:10.58333302px;line-height:1.25;font-family:sans-serif;-inkscape-font-specification:'sans-serif, Normal';font-variant-ligatures:normal;font-variant-caps:normal;font-variant-numeric:normal;font-feature-settings:normal;text-align:start;letter-spacing:0px;word-spacing:0px;writing-mode:lr-tb;text-anchor:start;fill:#000000;fill-opacity:1;stroke:none;stroke-width:0.26458332"
       id="text4698-1">
      <path
         d="m 133.23113,125.47298 q -1.00769,0 -1.5968,-0.64595 v 2.69234 h -0.96118 v -7.74113 h 0.8785 l 0.0465,0.61495 q 0.58912,-0.7183 1.61748,-0.7183 1.05936,0 1.62264,0.78548 0.56327,0.78548 0.56327,2.06706 v 0.10852 q 0,1.22473 -0.56844,2.03088 -0.56327,0.80615 -1.60197,0.80615 z m -0.29456,-4.99194 q -0.48575,0 -0.80098,0.22221 -0.31523,0.21704 -0.50126,0.54777 v 2.67684 q 0.1912,0.33073 0.50126,0.54777 0.31523,0.21187 0.81132,0.21187 0.77515,0 1.13171,-0.60978 0.36174,-0.60978 0.36174,-1.44177 v -0.10852 q 0,-0.832 -0.36174,-1.43661 -0.35656,-0.60978 -1.14205,-0.60978 z"
         id="path4747"
         inkscape:connector-curvature="0" />
      <path
         d="m 138.86386,120.59473 q -0.49093,0 -0.80615,0.22221 -0.31523,0.21704 -0.47026,0.58394 v 3.96875 h -0.95601 v -5.59139 h 0.93017 l 0.0207,0.64079 q 0.21187,-0.34107 0.53743,-0.54261 0.33073,-0.20153 0.79065,-0.20153 0.26872,0 0.42375,0.0723 l -0.005,0.88884 q -0.21187,-0.0413 -0.46509,-0.0413 z"
         id="path4749"
         inkscape:connector-curvature="0" />
      <path
         d="m 140.23329,118.29513 q 0,-0.23255 0.13952,-0.39275 0.1447,-0.16019 0.42375,-0.16019 0.27388,0 0.41858,0.16019 0.14986,0.1602 0.14986,0.39275 0,0.2222 -0.14986,0.3824 -0.1447,0.15503 -0.41858,0.15503 -0.27905,0 -0.42375,-0.15503 -0.13952,-0.1602 -0.13952,-0.3824 z m 1.03353,1.48311 v 5.59139 h -0.96119 v -5.59139 z"
         id="path4751"
         inkscape:connector-curvature="0" />
      <path
         d="m 142.55873,122.63595 v -0.11886 q 0,-1.2144 0.68212,-2.02572 0.68213,-0.81648 1.85519,-0.81648 1.18339,0 1.86552,0.81648 0.68729,0.81132 0.68729,2.02572 v 0.11886 q 0,1.21439 -0.68729,2.02571 -0.68213,0.81132 -1.85519,0.81132 -1.17822,0 -1.86552,-0.81132 -0.68212,-0.81132 -0.68212,-2.02571 z m 0.95601,-0.11886 v 0.11886 q 0,0.83199 0.39274,1.44177 0.39791,0.60978 1.19889,0.60978 0.78549,0 1.18339,-0.60978 0.39791,-0.60978 0.39791,-1.44177 v -0.11886 q 0,-0.82166 -0.39791,-1.4366 -0.3979,-0.62012 -1.19372,-0.62012 -0.79065,0 -1.18856,0.62012 -0.39274,0.61494 -0.39274,1.4366 z"
         id="path4753"
         inkscape:connector-curvature="0" />
      <path
         d="m 152.51161,117.43213 v 7.9375 h -0.96119 v -7.9375 z"
         id="path4755"
         inkscape:connector-curvature="0" />
      <path
         d="m 153.80352,122.63595 v -0.11886 q 0,-1.2144 0.68213,-2.02572 0.68213,-0.81648 1.85518,-0.81648 1.18339,0 1.86552,0.81648 0.6873,0.81132 0.6873,2.02572 v 0.11886 q 0,1.21439 -0.6873,2.02571 -0.68213,0.81132 -1.85518,0.81132 -1.17823,0 -1.86552,-0.81132 -0.68213,-0.81132 -0.68213,-2.02571 z m 0.95601,-0.11886 v 0.11886 q 0,0.83199 0.39274,1.44177 0.39791,0.60978 1.1989,0.60978 0.78548,0 1.18339,-0.60978 0.3979,-0.60978 0.3979,-1.44177 v -0.11886 q 0,-0.82166 -0.3979,-1.4366 -0.39791,-0.62012 -1.19373,-0.62012 -0.79065,0 -1.18856,0.62012 -0.39274,0.61494 -0.39274,1.4366 z"
         id="path4757"
         inkscape:connector-curvature="0" />
      <path
         d="m 167.06886,119.77824 -1.62264,5.59139 h -0.77515 l -1.35909,-4.2323 -1.32292,4.2323 h -0.78031 l -1.62264,-5.59139 h 0.95601 l 1.10071,4.17545 1.30225,-4.17545 h 0.76998 l 1.32291,4.2633 1.08004,-4.2633 z"
         id="path4759"
         inkscape:connector-curvature="0" />
    </g>
  </g>
</svg>
